<?xml version="1.0" encoding="iso-8859-1"?>
<!-- Generator: Adobe Illustrator 19.0.0, SVG Export Plug-In . SVG Version: 6.00 Build 0)  -->
<svg version="1.1" id="Capa_1" xmlns="http://www.w3.org/2000/svg" xmlns:xlink="http://www.w3.org/1999/xlink" x="0px" y="0px"
	 viewBox="0 0 370 370" style="enable-background:new 0 0 370 370;" xml:space="preserve">
<g id="XMLID_1387_">
	<path id="XMLID_1388_" style="fill:#DEDDE0;" d="M235,270h-2.208C207.371,300.107,185,320,185,320s-22.371-19.893-47.792-50H135
		c-27.614,0-50,22.386-50,50s22.386,50,50,50h100c27.614,0,50-22.386,50-50S262.614,270,235,270z"/>
	<path id="XMLID_1389_" style="fill:#FF5023;" d="M185,320V160c-22.091,0-40-17.91-40-40c0-22.092,17.909-40,40-40V0
		C118.727,0,65,53.727,65,120c0,53.037,38.748,110.371,72.208,150C162.629,300.107,185,320,185,320z"/>
	<path id="XMLID_1390_" style="fill:#BF3C1A;" d="M225,120c0,22.09-17.909,40-40,40v160c0,0,22.371-19.893,47.792-50
		C266.252,230.371,305,173.037,305,120C305,53.727,251.273,0,185,0v80C207.091,80,225,97.908,225,120z"/>
	<circle id="XMLID_1391_" style="fill:#FFFFFF;" cx="185" cy="120" r="40"/>
</g>
<g>
</g>
<g>
</g>
<g>
</g>
<g>
</g>
<g>
</g>
<g>
</g>
<g>
</g>
<g>
</g>
<g>
</g>
<g>
</g>
<g>
</g>
<g>
</g>
<g>
</g>
<g>
</g>
<g>
</g>
</svg>
